<?xml version="1.0" encoding="UTF-8"?>
<svg id="b" xmlns="http://www.w3.org/2000/svg" version="1.1" viewBox="0 0 592.3 592.3">
  <!-- Generator: Adobe Illustrator 30.0.0, SVG Export Plug-In . SVG Version: 2.1.1 Build 123)  -->
  <defs>
    <style>
      .st0 {
        fill: #f7f4ef;
      }

      .st1 {
        fill: #c89541;
      }

      .st2 {
        fill: #c89540;
      }
    </style>
  </defs>
  <ellipse class="st0" cx="296.1" cy="296.1" rx="291.1" ry="287.2"/>
  <g id="c">
    <g>
      <path class="st2" d="M363.2,304c24.5-16.1,36.7-34.3,36.7-54.6s-5.6-20.6-16.8-29.4c-11.2-8.8-24.3-14.9-39.4-18.4-15.1-3.5-28.5-5.2-40.1-5.2s-21.4.4-29.2,1.1c0-13.5-2.2-20.2-6.8-20.2-11.2,0-19.3,8.2-24.5,24.5-40.8,8-61.2,22.4-61.2,43.4s.9,4.8,2.7,7.1c1.8,2.3,5.4,3.4,10.7,3.4s9.5-1.6,12.7-4.7c3.2-3.1,5.3-8.6,6.6-16.6,1.2-9.6,9.8-16.6,25.8-21-1.2,7-1.8,18-1.8,32.9s-.8,34.6-2.5,58.9-2.5,38.2-2.5,41.5c0,13.7,1.8,22,5.4,24.9,3.6,2.9,11.9,4.3,24.9,4.3s5-9.1,5-27.5c0-47.4.9-82.7,2.7-105.8,1.2-15.4,2-26.6,2.3-33.6,2.1-.2,5.3-.4,9.5-.4,20.2,0,39.2,4.8,56.9,14.3,17.7,9.5,26.5,22.3,26.5,38.5s-6.1,24.7-18.1,35c-12.7-5.1-24.4-7.6-35.1-7.6s-18.9,1.4-24.7,4.2c-5.8,2.8-8.6,5.8-8.6,9.2,0,11.5,11.6,17.3,34.9,17.3s20.1-2,30.4-6.1c9.4,10.1,14,21.1,14,33.1s-6.3,22.5-18.8,31.6c-12.5,9.1-27,13.7-43.3,13.7s-17.1-1.7-30.4-5.1c-13.3-3.4-21.9-5-25.8-5-12.4,0-18.6,2.5-18.6,7.6s1.1,5.7,3.4,7.8c2.2,2,4.4,3.3,6.6,3.8,10.6,2.7,28.1,4,52.6,4,35.9,0,64.6-8.8,86.1-26.4,11.5-9.6,17.2-21.8,17.2-36.5s-8.5-27.3-25.4-37.9M320.6,308.7c-14.8,0-22.2-2.8-22.2-8.3s4-4,12-4,16.5,3,25.6,9c-4.9,2.2-10,3.2-15.4,3.2"/>
      <path class="st1" d="M296.1,71c30.4,0,59.9,6,87.6,17.7,26.8,11.4,50.9,27.6,71.6,48.3,20.7,20.7,36.9,44.8,48.3,71.6,11.7,27.8,17.7,57.2,17.7,87.6s-6,59.9-17.7,87.6c-11.4,26.8-27.6,50.9-48.3,71.6s-44.8,36.9-71.6,48.3c-27.8,11.7-57.2,17.7-87.6,17.7s-59.9-6-87.6-17.7c-26.8-11.4-50.9-27.6-71.6-48.3s-36.9-44.8-48.3-71.6c-11.7-27.8-17.7-57.2-17.7-87.6s6-59.9,17.7-87.6c11.3-26.8,27.6-50.9,48.3-71.6,20.7-20.7,44.8-36.9,71.6-48.3,27.8-11.7,57.2-17.7,87.6-17.7M296.1,56c-132.5,0-240.1,107.6-240.1,240.1s107.6,240.1,240.1,240.1,240.1-107.6,240.1-240.1S428.7,56,296.1,56h0Z"/>
    </g>
  </g>
</svg>