<?xml version="1.0" encoding="UTF-8"?>
<svg id="b" data-name="Layer 2" xmlns="http://www.w3.org/2000/svg" viewBox="0 0 810.19 253.25">
  <g id="c" data-name="Layer 4">
    <g>
      <path d="M201.7,141.1c27.23-17.95,40.84-38.19,40.84-60.7,0-12.06-6.22-22.98-18.66-32.76-12.44-9.78-27.07-16.61-43.87-20.5-16.81-3.88-31.69-5.83-44.63-5.83s-23.79.4-32.52,1.21c0-15-2.52-22.51-7.56-22.51-12.44,0-21.52,9.11-27.23,27.33C22.69,36.18,0,52.26,0,75.57c0,2.68,1.01,5.3,3.03,7.84,2.02,2.55,5.96,3.82,11.85,3.82s10.59-1.74,14.12-5.23c3.53-3.48,5.96-9.65,7.31-18.49,1.34-10.72,10.92-18.49,28.74-23.31-1.35,7.78-2.02,19.97-2.02,36.58s-.93,38.46-2.78,65.52c-1.85,27.07-2.77,42.48-2.77,46.23,0,15.28,2.02,24.52,6.05,27.74,4.04,3.22,13.28,4.82,27.73,4.82,3.69,0,5.55-10.18,5.55-30.55,0-52.79,1.01-92.05,3.02-117.78,1.34-17.15,2.18-29.61,2.52-37.38,2.35-.26,5.88-.4,10.59-.4,22.51,0,43.61,5.29,63.28,15.88,19.67,10.59,29.5,24.86,29.5,42.81,0,14.47-6.73,27.47-20.17,38.99-14.12-5.63-27.15-8.44-39.08-8.44s-21.1,1.54-27.48,4.62c-6.39,3.08-9.58,6.5-9.58,10.25,0,12.86,12.94,19.29,38.83,19.29,11.09,0,22.35-2.27,33.78-6.83,10.42,11.26,15.63,23.52,15.63,36.78s-6.98,24.99-20.92,35.17c-13.96,10.19-30,15.28-48.16,15.28-7.74,0-18.99-1.87-33.78-5.63-14.8-3.75-24.38-5.63-28.74-5.63-13.79,0-20.67,2.81-20.67,8.44,0,3.48,1.26,6.37,3.78,8.64,2.52,2.28,4.96,3.69,7.31,4.22,11.76,2.95,31.26,4.42,58.49,4.42,40,0,71.93-9.78,95.8-29.35,12.77-10.71,19.16-24.25,19.16-40.6s-9.42-30.41-28.24-42.21ZM154.3,146.32c-16.48,0-24.71-3.08-24.71-9.25,0-2.95,4.45-4.42,13.36-4.42s18.4,3.35,28.49,10.05c-5.38,2.41-11.09,3.62-17.14,3.62Z" style="fill: #c89541;"/>
      <path d="M502.96,110.69c1.77,1.46,3.86,2.61,6.28,3.46,2.41.86,4.96,1.28,7.65,1.28,2.9,0,5.58-.43,8.05-1.28,2.47-.85,4.59-2.01,6.36-3.46,1.77-1.45,3.16-3.14,4.18-5.07,1.02-1.93,1.53-4,1.53-6.22s-.51-4.45-1.53-6.42c-1.02-1.97-2.41-3.66-4.18-5.07-1.77-1.41-3.89-2.52-6.36-3.34-2.47-.81-5.15-1.22-8.05-1.22-2.69,0-5.23.41-7.65,1.22-2.41.81-4.51,1.93-6.28,3.34-1.77,1.41-3.2,3.1-4.27,5.07-1.07,1.97-1.61,4.11-1.61,6.42s.54,4.3,1.61,6.22c1.07,1.93,2.49,3.62,4.27,5.07Z" style="fill: #c89541;"/>
      <path d="M809.14,202.58c-.7-1.28-1.61-2.44-2.73-3.46-1.13-1.03-2.37-1.86-3.71-2.5-1.34-.64-2.65-.96-3.94-.96-1.72,0-3.3.62-4.75,1.86-1.45,1.24-2.55,3.23-3.3,5.97-.75,2.91-1.69,6.01-2.82,9.3-1.13,3.29-2.58,6.35-4.35,9.18-1.77,2.82-3.86,5.18-6.28,7.06-2.41,1.88-5.29,2.82-8.62,2.82-1.93,0-3.62-.36-5.07-1.09-1.45-.73-2.61-1.67-3.46-2.82-.86-1.16-1.51-2.44-1.93-3.85-.43-1.41-.65-2.84-.65-4.3v-43.38c0-3.16-1.61-5.88-4.83-8.15-3.22-2.27-7.57-3.4-13.04-3.4-2.36,0-4.37.41-6.03,1.22-1.67.81-2.49,1.91-2.49,3.27,0,.43.05.88.16,1.35.11.47.24,1.01.4,1.6.16.6.32,1.33.49,2.18.16.86.24,1.92.24,3.21v40.55c-1.83,3.68-4.24,6.87-7.24,9.56-3.01,2.69-6.76,4.04-11.27,4.04-5.8,0-10.36-1.86-13.68-5.58-3.33-3.72-4.99-9.05-4.99-15.98,0-.47.06-.89.06-1.35.07-.23.18-.47.26-.7.21-.51.32-.9.32-1.15v-.64c0-.73-.15-1.46-.37-2.19.57-6.96,2.12-13.16,4.72-18.53,3.32-6.89,7.59-12.58,12.8-17.07,5.2-4.49,11.03-7.83,17.47-10.01,6.44-2.18,12.77-3.27,19-3.27,1.71,0,3.38.09,4.99.26,1.61.17,3.16.26,4.67.26,1.61,0,2.71-.45,3.3-1.35.59-.9.88-2.46.88-4.69,0-3.42-1.39-6.12-4.18-8.08-2.79-1.97-6.44-2.95-10.95-2.95-10.09,0-19.83,1.63-29.22,4.88-9.39,3.25-17.74,7.94-25.03,14.05-7.3,6.12-13.15,13.54-17.55,22.27-4.4,8.73-6.59,18.57-6.59,29.52,0,3.37.34,6.58.95,9.68-.49.93-.96,1.88-1.52,2.77-1.77,2.82-3.86,5.18-6.28,7.06-2.41,1.88-5.29,2.82-8.61,2.82-2.14,0-3.78-.51-4.91-1.54-1.13-1.03-1.95-2.22-2.49-3.59-.54-1.37-.86-2.72-.97-4.04-.11-1.33-.16-2.29-.16-2.89v-54.41c0-2.99-.4-6.07-1.21-9.24-.81-3.16-2.23-6.03-4.27-8.6-2.04-2.57-4.83-4.66-8.37-6.29-3.54-1.62-8.05-2.44-13.52-2.44-4.08,0-7.86.66-11.35,1.99-3.49,1.33-6.76,3.17-9.82,5.52-3.06,2.35-5.9,5.11-8.53,8.28-2.63,3.17-5.07,6.59-7.33,10.27v-11.81c0-3.16-1.59-5.88-4.75-8.15-3.17-2.27-7.49-3.4-12.96-3.4-2.36,0-4.4.41-6.11,1.22-1.72.81-2.58,1.86-2.58,3.14,0,.94.24,1.97.72,3.08.49,1.11.73,2.91.73,5.39v45.64c-.52.98-.96,2.14-1.29,3.51-.75,2.91-1.72,6.01-2.9,9.3-1.18,3.29-2.65,6.35-4.43,9.18-1.77,2.82-3.86,5.18-6.28,7.06-2.41,1.88-5.23,2.82-8.45,2.82-2.15,0-3.81-.51-4.99-1.54-1.18-1.03-2.04-2.22-2.57-3.59-.54-1.37-.86-2.72-.97-4.04-.11-1.33-.16-2.29-.16-2.89v-66.74c0-3.16-1.59-5.88-4.75-8.15-3.17-2.27-7.48-3.4-12.95-3.4-2.36,0-4.4.41-6.12,1.22-1.72.81-2.58,1.86-2.58,3.14,0,.94.24,1.97.73,3.08.48,1.11.73,2.91.73,5.39v45.4c-.6,1.04-1.1,2.27-1.45,3.75-.75,2.91-1.69,6.01-2.81,9.3-1.13,3.29-2.58,6.35-4.35,9.18-1.77,2.82-3.87,5.18-6.28,7.06-2.41,1.88-5.29,2.82-8.61,2.82s-6.17-.94-8.21-2.82c-2.04-1.88-3.06-4.96-3.06-9.24v-83.29c8.8,0,18.27-.02,28.41-.06,10.14-.04,21.81-.19,35.01-.45,1.39,0,2.65-.64,3.78-1.92,1.13-1.28,2.01-2.8,2.66-4.56.64-1.75,1.07-3.57,1.29-5.45.21-1.88.19-3.46-.08-4.75-.27-1.28-.86-2.1-1.77-2.44-.91-.34-2.12.13-3.62,1.41-11.27.43-22.51.73-33.73.9-11.22.17-21.87.26-31.95.26v-46.07c0-3.16-1.59-5.88-4.75-8.15-3.17-2.27-7.48-3.4-12.96-3.4-1.18,0-2.38.06-3.62.19-1.24.13-2.39.32-3.46.58-1.07.26-1.93.56-2.58.9-.64.34-.96.77-.96,1.28,0,.43.18.83.56,1.22.37.38.75.9,1.13,1.54.38.64.75,1.52,1.13,2.63.37,1.11.57,2.61.57,4.49v44.53c-4.51-.08-8.59-.15-12.24-.19-3.65-.04-6.76-.15-9.34-.32-3-.08-5.74-.21-8.21-.38-2.36,0-3.83.92-4.43,2.76-.59,1.84-.48,3.87.32,6.1.81,2.23,2.21,4.26,4.19,6.1,1.99,1.84,4.27,2.76,6.84,2.76,1.72.09,3.71.17,5.96.26,1.93.09,4.32.15,7.16.19,2.84.04,6.09.06,9.74.06v63.24c-.6,1.05-1.1,2.27-1.45,3.75-.75,2.91-1.69,6.01-2.81,9.3-1.13,3.29-2.61,6.35-4.43,9.18-1.82,2.82-4.08,5.18-6.76,7.06-2.69,1.88-5.91,2.82-9.66,2.82-2.25,0-4.21-.39-5.87-1.16-1.67-.77-3.03-1.82-4.11-3.14-1.07-1.33-1.88-2.84-2.41-4.56-.54-1.71-.81-3.46-.81-5.26,0-4.36.38-8.83,1.13-13.41.75-4.58,1.67-9,2.74-13.28,1.07-4.28,2.26-8.36,3.54-12.26,1.29-3.89,2.47-7.34,3.54-10.33,1.07-2.99,1.99-5.47,2.73-7.44.75-1.97,1.13-3.21,1.13-3.72.32-1.54-.13-3.16-1.37-4.88-1.23-1.71-2.76-3.32-4.59-4.81-1.83-1.5-3.67-2.71-5.55-3.66-1.88-.94-3.3-1.41-4.27-1.41h-19.8c-.86,0-1.93-.04-3.22-.13-1.29-.08-2.87-.19-4.75-.32-1.88-.13-4.16-.32-6.84-.58-.97-2.65-2.2-4.88-3.7-6.67-1.51-1.8-3.2-3.25-5.07-4.36-1.88-1.11-3.86-1.88-5.96-2.31-2.09-.43-4.11-.64-6.04-.64-2.15,0-4.24.28-6.28.83-2.04.56-3.81,1.37-5.31,2.44-1.51,1.07-2.71,2.35-3.62,3.85-.91,1.5-1.37,3.14-1.37,4.94,0,3.85,1.34,7.17,4.02,9.95,2.68,2.78,6.06,5.07,10.14,6.87-.11,3.34-.27,7.12-.48,11.36-.22,4.24-.51,8.47-.89,12.71-.38,4.24-.88,8.26-1.53,12.06-.44,2.61-.95,4.84-1.49,6.91-.96,3.79-2.32,7.54-4.14,11.25-1.93,3.94-4.48,7.49-7.65,10.65-3.17,3.17-7.05,5.71-11.67,7.64-4.61,1.93-10.14,2.89-16.58,2.89-4.29,0-8.08-.43-11.35-1.28-3.27-.85-6.15-2.01-8.61-3.46-2.47-1.45-4.59-3.19-6.36-5.2-1.77-2.01-3.19-4.13-4.27-6.35,7.94-1.88,14.94-4.64,21.01-8.28,6.06-3.63,11.16-7.74,15.29-12.32,4.13-4.58,7.25-9.43,9.34-14.57,2.09-5.13,3.14-10.14,3.14-15.02,0-3.93-.67-7.53-2.01-10.78-1.34-3.25-3.3-6.05-5.88-8.41-2.57-2.35-5.71-4.17-9.42-5.45-3.7-1.28-7.86-1.93-12.47-1.93-6.34,0-12.5,1.48-18.52,4.43-6.01,2.95-11.38,7.04-16.1,12.26-4.72,5.22-8.53,11.4-11.43,18.54-2.9,7.14-4.35,14.87-4.35,23.17s1.63,15.55,4.91,22.01c3.27,6.46,7.61,11.89,13.04,16.3,5.42,4.41,11.64,7.78,18.67,10.14,7.03,2.35,14.3,3.53,21.81,3.53,8.05,0,15.18-.81,21.41-2.44,6.22-1.63,11.64-3.77,16.26-6.42,4.61-2.65,8.51-5.67,11.68-9.05,3.16-3.38,5.77-6.82,7.81-10.33,2.04-3.51,3.57-6.97,4.59-10.39,1.02-3.42,1.74-6.46,2.17-9.11.03-.19,0-.37.02-.56.35-1.3.72-2.57,1.03-3.93,1.02-4.53,1.85-9.03,2.5-13.48.64-4.45,1.1-8.64,1.37-12.58.27-3.93.45-7.19.56-9.75h28.82c-5.37,11.38-9.48,21.8-12.32,31.25-2.85,9.46-4.27,18.42-4.27,26.89,0,5.82,1.05,10.63,3.14,14.44,2.09,3.81,4.78,6.87,8.05,9.18,3.27,2.31,6.92,3.93,10.95,4.88,4.02.94,7.97,1.41,11.83,1.41,7.08,0,13.26-1.33,18.52-3.98,5.26-2.65,9.76-5.99,13.52-10.01.14-.15.25-.32.39-.48,1.44,3.04,3.24,5.69,5.57,7.73,2.68,2.35,5.87,4.06,9.58,5.13,3.7,1.07,7.75,1.61,12.15,1.61,7.09,0,13.26-1.33,18.52-3.98,5.2-2.63,9.69-5.93,13.48-9.9,1.19,2.45,2.7,4.67,4.71,6.56,2.36,2.22,5.25,4,8.69,5.33,3.43,1.33,7.35,1.99,11.75,1.99,7.08,0,13.26-1.33,18.51-3.98,4.1-2.07,7.6-4.68,10.79-7.57h0c0,2.48.51,4.47,1.53,5.97,1.02,1.5,2.31,2.65,3.87,3.46,1.56.81,3.27,1.37,5.15,1.67,1.88.3,3.63.45,5.23.45,2.36,0,4.16-.36,5.39-1.09,1.23-.73,2.15-1.63,2.73-2.7.59-1.07.91-2.27.97-3.59.06-1.33.08-2.63.08-3.91v-38.37c.64-5.22,2.23-10.42,4.75-15.59,2.52-5.18,5.45-9.82,8.78-13.93,3.33-4.11,6.71-7.44,10.14-10.01,3.43-2.57,6.33-3.85,8.69-3.85,1.61,0,2.87.41,3.78,1.22s1.61,1.9,2.09,3.27c.48,1.37.78,2.95.89,4.75.11,1.8.16,3.72.16,5.77v53.39c0,3.34.61,6.5,1.85,9.5,1.23,2.99,3.06,5.6,5.47,7.83,2.42,2.22,5.31,4,8.69,5.33,3.38,1.33,7.27,1.99,11.68,1.99,7.08,0,13.25-1.33,18.51-3.98,4.57-2.31,8.5-5.23,11.98-8.58.3.35.58.73.9,1.07,3.33,3.55,7.43,6.35,12.32,8.41,4.88,2.05,10.55,3.08,16.98,3.08s11.67-1.05,16.34-3.14c4.67-2.1,8.66-4.64,11.99-7.64,2.47,3.25,5.85,5.86,10.14,7.83,4.29,1.97,9.34,2.95,15.13,2.95,7.08,0,13.28-1.33,18.59-3.98,5.31-2.65,9.85-5.99,13.6-10.01,3.76-4.02,6.84-8.43,9.26-13.22,2.41-4.79,4.32-9.37,5.71-13.73.21-.51.32-.9.32-1.15v-.64c0-1.28-.35-2.57-1.05-3.85ZM263.49,198.73c-.11-.77-.16-1.54-.16-2.31-.11-1.8-.06-4.04.16-6.74.21-2.7.65-5.54,1.29-8.53.64-2.99,1.47-5.97,2.5-8.92,1.01-2.95,2.31-5.6,3.86-7.96,1.56-2.35,3.38-4.26,5.47-5.71,2.09-1.45,4.48-2.18,7.16-2.18,2.14,0,3.84.81,5.07,2.44,1.24,1.63,1.85,3.89,1.85,6.8,0,3.94-.64,7.72-1.93,11.36-1.29,3.64-3.11,6.99-5.47,10.07-2.36,3.08-5.21,5.82-8.54,8.21-3.33,2.4-7.03,4.36-11.11,5.9,0-.85-.05-1.67-.16-2.44Z" style="fill: #c89541;"/>
    </g>
  </g>
</svg>